<?xml version="1.0" encoding="iso-8859-1"?>
<!-- Generator: Adobe Illustrator 19.0.0, SVG Export Plug-In . SVG Version: 6.00 Build 0)  -->
<svg xmlns="http://www.w3.org/2000/svg" xmlns:xlink="http://www.w3.org/1999/xlink" version="1.1" id="Capa_1" x="0px" y="0px" viewBox="0 0 512 512" style="enable-background:new 0 0 512 512;" xml:space="preserve" width="512px" height="512px">
<g>
	<g>
		<path d="M324.18,247.525l83.153-83.153l15.547,15.547L512,79.798L432.521,0.319l-100.132,89.11l15.728,15.728l-83.153,83.153    l-22.866-22.866c6.527-19.802,7.969-40.906,4.125-61.619c-2.283-12.354-6.397-24.157-12.154-35.099    c-5.766-10.942-13.195-21.024-22.105-29.944C176.665,3.492,123.946-7.24,77.654,11.451l-21.044,8.49l76.065,76.065l-9.931,28.522    L93.552,134.99L17.557,58.994l-8.49,21.044c-18.691,46.292-7.959,99.011,27.341,134.3c17.83,17.84,40.315,29.683,65.033,34.268    c20.713,3.844,41.817,2.403,61.619-4.125l13.515,13.515L18.267,416.294c-21.794,21.794-21.794,57.244,0,79.038    c10.892,10.892,25.198,16.348,39.514,16.348c14.316,0,28.622-5.456,39.514-16.348l158.307-158.307L413.35,494.772    c10.562,10.552,24.598,16.368,39.524,16.368c14.927,0,28.962-5.816,39.514-16.368c10.562-10.552,16.368-24.588,16.368-39.514    c0-14.937-5.806-28.962-16.368-39.524L324.18,247.525z M390.594,105.157l-14.456-14.456l55.182-49.105L470.724,81l-49.115,55.182    l-14.276-14.286L302.936,226.283l-16.729-16.729L390.594,105.157z M76.062,474.099c-10.081,10.071-26.48,10.081-36.561,0    c-10.081-10.081-10.081-26.49,0-36.571L154.299,322.73l36.561,36.561L76.062,474.099z M212.096,338.055l-36.561-36.561    l22.273-22.263l36.561,36.561L212.096,338.055z M471.154,473.538c-10.081,10.071-26.48,10.081-36.561,0L276.847,315.792l0.01-0.02    l-10.472-10.462l-21.234-21.244l-16.739-16.729l-21.234-21.244l-9.361-9.35l-0.01,0.01l-27.511-27.511l-9.32,3.954    c-35.51,15.067-76.065,7.178-103.336-20.092c-20.933-20.933-30.474-49.956-26.85-78.398l54.982,54.982l60.618-21.734    l20.843-59.867l-54.912-54.911c3.944-0.501,7.909-0.751,11.853-0.751c24.497,0,48.514,9.571,66.545,27.601    c27.271,27.271,35.159,67.826,20.102,103.336l-3.964,9.32l36.871,36.871l21.234,21.234l206.191,206.191    c4.885,4.875,7.568,11.373,7.568,18.28C478.723,462.156,476.04,468.653,471.154,473.538z" fill="#0d4166"/>
	</g>
</g>
<g>
</g>
<g>
</g>
<g>
</g>
<g>
</g>
<g>
</g>
<g>
</g>
<g>
</g>
<g>
</g>
<g>
</g>
<g>
</g>
<g>
</g>
<g>
</g>
<g>
</g>
<g>
</g>
<g>
</g>
</svg>
